<svg width="433" height="363" viewBox="0 0 433 363" fill="none" xmlns="http://www.w3.org/2000/svg">
<path d="M6.5 357.161C7.22 354.941 10.88 354.521 10.88 351.941C10.88 350.561 9.8 349.481 8.18 349.481C6.02 349.481 5.6 351.401 5.6 351.401L6.38 351.761C6.38 351.761 6.68 350.321 8.18 350.321C9.32 350.321 9.98 350.981 9.98 351.941C9.98 354.341 5.48 354.461 5.48 358.001H10.88V357.161H6.5ZM12.4977 356.861C12.4977 356.861 13.3977 358.121 15.2577 358.121C16.9977 358.121 18.1377 356.981 18.1377 355.361C18.1377 353.801 16.9377 352.601 15.3177 352.601C14.2977 352.601 13.6977 353.081 13.6977 353.081L13.8777 350.441H17.5977V349.601H13.0977L12.7977 354.341H13.4577C13.4577 354.341 14.0457 353.441 15.3177 353.441C16.4577 353.441 17.2377 354.221 17.2377 355.361C17.2377 356.501 16.4577 357.281 15.2577 357.281C13.8177 357.281 13.0977 356.261 13.0977 356.261L12.4977 356.861ZM19.3433 351.341C19.3433 352.361 20.1833 353.201 21.2033 353.201C22.2233 353.201 23.0633 352.361 23.0633 351.341C23.0633 350.321 22.2233 349.481 21.2033 349.481C20.1833 349.481 19.3433 350.321 19.3433 351.341ZM20.3633 358.001H21.2033L26.4833 349.601H25.6433L20.3633 358.001ZM21.2033 352.481C20.6033 352.481 20.1233 352.001 20.1233 351.341C20.1233 350.681 20.6033 350.201 21.2033 350.201C21.8033 350.201 22.2833 350.681 22.2833 351.341C22.2833 352.001 21.8033 352.481 21.2033 352.481ZM23.7833 356.261C23.7833 357.281 24.6233 358.121 25.6433 358.121C26.6633 358.121 27.5033 357.281 27.5033 356.261C27.5033 355.241 26.6633 354.401 25.6433 354.401C24.6233 354.401 23.7833 355.241 23.7833 356.261ZM25.6433 357.401C25.0433 357.401 24.5633 356.921 24.5633 356.261C24.5633 355.601 25.0433 355.121 25.6433 355.121C26.2433 355.121 26.7233 355.601 26.7233 356.261C26.7233 356.921 26.2433 357.401 25.6433 357.401Z" fill="black"/>
<path d="M126.36 356.861C126.36 356.861 127.26 358.121 129.18 358.121C130.92 358.121 132 356.921 132 355.661C132 353.921 130.44 353.561 130.44 353.561C130.44 353.561 131.7 353.141 131.7 351.701C131.7 350.501 130.68 349.481 129.18 349.481C127.5 349.481 126.66 350.621 126.66 350.621L127.26 351.281C127.26 351.281 127.92 350.321 129.18 350.321C130.2 350.321 130.8 350.921 130.8 351.701C130.8 352.601 130.2 353.201 129.18 353.201H128.34V354.041H129.18C130.404 354.041 131.16 354.809 131.16 355.661C131.16 356.561 130.44 357.281 129.18 357.281C127.68 357.281 126.96 356.261 126.96 356.261L126.36 356.861ZM133.615 356.861C133.615 356.861 134.515 358.121 136.375 358.121C138.115 358.121 139.255 356.981 139.255 355.361C139.255 353.801 138.055 352.601 136.435 352.601C135.415 352.601 134.815 353.081 134.815 353.081L134.995 350.441H138.715V349.601H134.215L133.915 354.341H134.575C134.575 354.341 135.163 353.441 136.435 353.441C137.575 353.441 138.355 354.221 138.355 355.361C138.355 356.501 137.575 357.281 136.375 357.281C134.935 357.281 134.215 356.261 134.215 356.261L133.615 356.861ZM140.46 351.341C140.46 352.361 141.3 353.201 142.32 353.201C143.34 353.201 144.18 352.361 144.18 351.341C144.18 350.321 143.34 349.481 142.32 349.481C141.3 349.481 140.46 350.321 140.46 351.341ZM141.48 358.001H142.32L147.6 349.601H146.76L141.48 358.001ZM142.32 352.481C141.72 352.481 141.24 352.001 141.24 351.341C141.24 350.681 141.72 350.201 142.32 350.201C142.92 350.201 143.4 350.681 143.4 351.341C143.4 352.001 142.92 352.481 142.32 352.481ZM144.9 356.261C144.9 357.281 145.74 358.121 146.76 358.121C147.78 358.121 148.62 357.281 148.62 356.261C148.62 355.241 147.78 354.401 146.76 354.401C145.74 354.401 144.9 355.241 144.9 356.261ZM146.76 357.401C146.16 357.401 145.68 356.921 145.68 356.261C145.68 355.601 146.16 355.121 146.76 355.121C147.36 355.121 147.84 355.601 147.84 356.261C147.84 356.921 147.36 357.401 146.76 357.401Z" fill="black"/>
<path d="M314.9 356.861C314.9 356.861 315.8 358.121 317.66 358.121C319.4 358.121 320.54 356.981 320.54 355.361C320.54 353.801 319.34 352.601 317.72 352.601C316.7 352.601 316.1 353.081 316.1 353.081L316.28 350.441H320V349.601H315.5L315.2 354.341H315.86C315.86 354.341 316.448 353.441 317.72 353.441C318.86 353.441 319.64 354.221 319.64 355.361C319.64 356.501 318.86 357.281 317.66 357.281C316.22 357.281 315.5 356.261 315.5 356.261L314.9 356.861ZM325.358 358.121C327.086 358.121 328.706 356.501 328.706 353.801C328.706 351.101 327.086 349.481 325.346 349.481C323.606 349.481 321.986 351.101 321.986 353.801C321.986 356.501 323.606 358.121 325.358 358.121ZM325.358 357.281C324.086 357.281 322.886 356.081 322.886 353.801C322.886 351.521 324.086 350.321 325.346 350.321C326.606 350.321 327.806 351.521 327.806 353.801C327.806 356.081 326.606 357.281 325.358 357.281ZM329.902 351.341C329.902 352.361 330.742 353.201 331.762 353.201C332.782 353.201 333.622 352.361 333.622 351.341C333.622 350.321 332.782 349.481 331.762 349.481C330.742 349.481 329.902 350.321 329.902 351.341ZM330.922 358.001H331.762L337.042 349.601H336.202L330.922 358.001ZM331.762 352.481C331.162 352.481 330.682 352.001 330.682 351.341C330.682 350.681 331.162 350.201 331.762 350.201C332.362 350.201 332.842 350.681 332.842 351.341C332.842 352.001 332.362 352.481 331.762 352.481ZM334.342 356.261C334.342 357.281 335.182 358.121 336.202 358.121C337.222 358.121 338.062 357.281 338.062 356.261C338.062 355.241 337.222 354.401 336.202 354.401C335.182 354.401 334.342 355.241 334.342 356.261ZM336.202 357.401C335.602 357.401 335.122 356.921 335.122 356.261C335.122 355.601 335.602 355.121 336.202 355.121C336.802 355.121 337.282 355.601 337.282 356.261C337.282 356.921 336.802 357.401 336.202 357.401Z" fill="#93A9C3"/>
<path d="M345.35 332.151C345.35 332.151 347.3 334.911 351.5 335.271V338.301H353.6V335.241C357.35 334.821 359.45 332.451 359.45 329.301C359.45 321.801 348.05 324.801 348.05 319.401C348.05 317.511 349.67 315.801 352.55 315.801C355.67 315.801 357.2 317.901 357.2 317.901L358.7 316.401C358.7 316.401 356.93 314.181 353.6 313.761V310.701H351.5V313.761C347.93 314.181 345.8 316.611 345.8 319.401C345.8 326.901 357.2 323.901 357.2 329.301C357.2 331.551 355.55 333.201 352.4 333.201C348.5 333.201 346.7 330.621 346.7 330.621L345.35 332.151ZM366.063 335.001H368.313V314.001H366.663C366.663 314.001 365.763 316.701 362.163 316.851V318.201H366.063V335.001ZM381.681 335.301C386.001 335.301 390.051 331.251 390.051 324.501C390.051 317.751 386.001 313.701 381.651 313.701C377.301 313.701 373.251 317.751 373.251 324.501C373.251 331.251 377.301 335.301 381.681 335.301ZM381.681 333.201C378.501 333.201 375.501 330.201 375.501 324.501C375.501 318.801 378.501 315.801 381.651 315.801C384.801 315.801 387.801 318.801 387.801 324.501C387.801 330.201 384.801 333.201 381.681 333.201ZM402.072 335.301C406.392 335.301 410.442 331.251 410.442 324.501C410.442 317.751 406.392 313.701 402.042 313.701C397.692 313.701 393.642 317.751 393.642 324.501C393.642 331.251 397.692 335.301 402.072 335.301ZM402.072 333.201C398.892 333.201 395.892 330.201 395.892 324.501C395.892 318.801 398.892 315.801 402.042 315.801C405.192 315.801 408.192 318.801 408.192 324.501C408.192 330.201 405.192 333.201 402.072 333.201ZM422.462 335.301C426.782 335.301 430.832 331.251 430.832 324.501C430.832 317.751 426.782 313.701 422.432 313.701C418.082 313.701 414.032 317.751 414.032 324.501C414.032 331.251 418.082 335.301 422.462 335.301ZM422.462 333.201C419.282 333.201 416.282 330.201 416.282 324.501C416.282 318.801 419.282 315.801 422.432 315.801C425.582 315.801 428.582 318.801 428.582 324.501C428.582 330.201 425.582 333.201 422.462 333.201Z" fill="#93A9C3"/>
<path d="M123.32 301.481C123.32 301.481 124.44 302.841 126.76 303.161V304.601H128.84V303.161C130.6 302.761 131.88 301.481 131.88 299.801C131.88 295.881 126.28 296.761 126.28 294.841C126.28 294.201 126.76 293.721 127.96 293.721C129.24 293.721 130.04 294.681 130.04 294.681L131.64 293.081C131.64 293.081 130.52 291.881 128.84 291.641V290.201H126.76V291.641C124.92 292.121 123.8 293.241 123.8 294.841C123.8 298.761 129.4 297.881 129.4 299.801C129.4 300.521 128.84 301.081 127.56 301.081C125.88 301.081 124.92 299.881 124.92 299.881L123.32 301.481ZM132.919 301.481C132.919 301.481 134.359 303.241 137.159 303.241C139.719 303.241 141.399 301.561 141.399 299.401C141.399 297.241 139.799 295.641 137.479 295.641C136.519 295.641 135.879 296.041 135.879 296.041L135.959 294.041H140.679V291.801H133.879L133.479 298.361L135.159 298.601C135.159 298.601 135.799 297.721 136.999 297.721C138.199 297.721 138.919 298.441 138.919 299.401C138.919 300.361 138.199 301.081 136.919 301.081C135.479 301.081 134.519 299.881 134.519 299.881L132.919 301.481ZM147.647 301.001C146.447 301.001 145.247 299.801 145.247 297.401C145.247 295.001 146.447 293.801 147.647 293.801C148.847 293.801 150.047 295.001 150.047 297.401C150.047 299.801 148.847 301.001 147.647 301.001ZM147.647 303.241C150.207 303.241 152.447 301.001 152.447 297.401C152.447 293.801 150.207 291.561 147.647 291.561C145.087 291.561 142.847 293.801 142.847 297.401C142.847 301.001 145.087 303.241 147.647 303.241ZM158.85 301.001C157.65 301.001 156.45 299.801 156.45 297.401C156.45 295.001 157.65 293.801 158.85 293.801C160.05 293.801 161.25 295.001 161.25 297.401C161.25 299.801 160.05 301.001 158.85 301.001ZM158.85 303.241C161.41 303.241 163.65 301.001 163.65 297.401C163.65 293.801 161.41 291.561 158.85 291.561C156.29 291.561 154.05 293.801 154.05 297.401C154.05 301.001 156.29 303.241 158.85 303.241Z" fill="black"/>
<path d="M1.32 301.481C1.32 301.481 2.44 302.841 4.76 303.161V304.601H6.84V303.161C8.6 302.761 9.88 301.481 9.88 299.801C9.88 295.881 4.28 296.761 4.28 294.841C4.28 294.201 4.76 293.721 5.96 293.721C7.24 293.721 8.04 294.681 8.04 294.681L9.64 293.081C9.64 293.081 8.52 291.881 6.84 291.641V290.201H4.76V291.641C2.92 292.121 1.8 293.241 1.8 294.841C1.8 298.761 7.4 297.881 7.4 299.801C7.4 300.521 6.84 301.081 5.56 301.081C3.88 301.081 2.92 299.881 2.92 299.881L1.32 301.481ZM13.9594 300.761C15.2394 298.761 18.7594 298.281 18.7594 295.081C18.7594 293.081 17.2394 291.561 14.8394 291.561C11.7194 291.561 10.8394 294.201 10.8394 294.201L12.7594 295.161C12.7594 295.161 13.3194 293.801 14.6794 293.801C15.6394 293.801 16.2794 294.441 16.2794 295.241C16.2794 297.721 10.8394 297.721 10.8394 303.001H18.7594V300.761H13.9594ZM20.1225 301.481C20.1225 301.481 21.5625 303.241 24.3625 303.241C26.9225 303.241 28.6025 301.561 28.6025 299.401C28.6025 297.241 27.0025 295.641 24.6825 295.641C23.7225 295.641 23.0825 296.041 23.0825 296.041L23.1625 294.041H27.8825V291.801H21.0825L20.6825 298.361L22.3625 298.601C22.3625 298.601 23.0025 297.721 24.2025 297.721C25.4025 297.721 26.1225 298.441 26.1225 299.401C26.1225 300.361 25.4025 301.081 24.1225 301.081C22.6825 301.081 21.7225 299.881 21.7225 299.881L20.1225 301.481ZM34.85 301.001C33.65 301.001 32.45 299.801 32.45 297.401C32.45 295.001 33.65 293.801 34.85 293.801C36.05 293.801 37.25 295.001 37.25 297.401C37.25 299.801 36.05 301.001 34.85 301.001ZM34.85 303.241C37.41 303.241 39.65 301.001 39.65 297.401C39.65 293.801 37.41 291.561 34.85 291.561C32.29 291.561 30.05 293.801 30.05 297.401C30.05 301.001 32.29 303.241 34.85 303.241Z" fill="black"/>
<path d="M9 323L323.5 312.134V337L9 327V323Z" fill="#93A9C3"/>
<path d="M9 323.001L263 314.501V335.001L9 327.001V323.001Z" fill="#00CE7D"/>
<circle cx="12.5" cy="324.5" r="11" fill="#00CE7D" stroke="white" stroke-width="3"/>
<path d="M12.1686 326.773C11.8513 327.077 11.3363 327.077 11.0191 326.773L9.23803 325.067C8.92066 324.763 8.92066 324.269 9.23803 323.965C9.55524 323.661 10.0702 323.661 10.3876 323.965L11.4487 324.982C11.5288 325.058 11.6589 325.058 11.7391 324.982L14.6124 322.229C14.9297 321.925 15.4446 321.925 15.762 322.229C15.9144 322.375 16 322.573 16 322.78C16 322.986 15.9144 323.184 15.762 323.33L12.1686 326.773Z" fill="white"/>
<circle cx="136.5" cy="324.5" r="11" fill="#00CE7D" stroke="white" stroke-width="3"/>
<path d="M136.169 326.773C135.851 327.077 135.336 327.077 135.019 326.773L133.238 325.067C132.921 324.763 132.921 324.269 133.238 323.965C133.555 323.661 134.07 323.661 134.388 323.965L135.449 324.982C135.529 325.058 135.659 325.058 135.739 324.982L138.612 322.229C138.93 321.925 139.445 321.925 139.762 322.229C139.914 322.375 140 322.573 140 322.78C140 322.986 139.914 323.184 139.762 323.33L136.169 326.773Z" fill="white"/>
<circle cx="323.5" cy="324.5" r="11" fill="#F5F7F8" stroke="white" stroke-width="3"/>
<g filter="url(#filter0_d)">
<rect x="263" y="299.001" width="2" height="45" rx="1" fill="#00CE7D"/>
<rect x="262.5" y="298.501" width="3" height="46" rx="1.5" stroke="white"/>
</g>
<g filter="url(#filter1_d)">
<rect x="148.238" y="163" width="193" height="91" rx="4" transform="rotate(10.7715 148.238 163)" fill="white"/>
<rect x="147.841" y="162.415" width="194" height="92" rx="4.5" transform="rotate(10.7715 147.841 162.415)" stroke="#E6EAEE"/>
</g>
<path d="M159.398 192.201C159.398 192.201 160.279 193.936 162.549 194.368C164.68 194.773 166.317 193.659 166.592 192.215C166.959 190.29 165.056 189.429 165.056 189.429C165.056 189.429 166.798 189.262 167.112 187.611C167.373 186.236 166.427 184.845 164.433 184.465C162.438 184.086 161.076 185.252 161.076 185.252L161.633 186.07C161.633 186.07 162.737 185.14 164.249 185.428C165.625 185.69 166.237 186.59 166.067 187.484C165.91 188.309 165.01 188.922 163.635 188.66L162.534 188.451L162.351 189.413L163.451 189.623C165.033 189.924 165.757 190.988 165.561 192.019C165.378 192.982 164.313 193.706 162.732 193.405C160.944 193.065 160.217 191.644 160.217 191.644L159.398 192.201ZM171.992 196.022L172.955 196.205L173.753 192.01C174.028 190.566 173.137 189.256 171.624 188.969C170.042 188.668 168.913 189.735 168.913 189.735L169.414 190.472C169.414 190.472 170.285 189.64 171.454 189.862C172.416 190.046 172.973 190.864 172.79 191.827L170.167 191.755C168.89 191.726 168.072 192.283 167.862 193.383C167.679 194.346 168.459 195.492 169.834 195.754C171.278 196.028 172.162 195.128 172.162 195.128L171.992 196.022ZM172.555 193.065C172.306 194.371 171.242 195.095 170.004 194.86C169.11 194.69 168.721 194.117 168.825 193.566C168.943 192.948 169.431 192.627 170.285 192.633L172.633 192.652L172.555 193.065ZM174.599 199.51L175.562 199.694L176.295 195.843C176.295 195.843 176.842 197.087 178.355 197.375C180.143 197.715 181.862 196.545 182.241 194.551C182.62 192.557 181.451 190.838 179.663 190.498C178.15 190.21 177.184 191.166 177.184 191.166L177.368 190.204L176.405 190.021L174.599 199.51ZM178.525 196.481C177.356 196.258 176.465 194.949 176.74 193.505C177.014 192.06 178.324 191.17 179.493 191.392C180.731 191.627 181.566 192.855 181.278 194.368C180.99 195.881 179.763 196.716 178.525 196.481ZM186.19 198.865C188.047 199.219 189.848 197.993 190.214 196.068C190.58 194.143 189.355 192.342 187.499 191.989C185.642 191.635 183.841 192.86 183.475 194.786C183.109 196.711 184.334 198.512 186.19 198.865ZM186.361 197.971C185.054 197.723 184.166 196.399 184.438 194.969C184.712 193.525 186.022 192.634 187.329 192.883C188.635 193.131 189.526 194.441 189.251 195.885C188.977 197.329 187.667 198.22 186.361 197.971ZM198.58 190.677C198.58 190.677 197.872 191.026 196.167 191.001C194.176 190.979 192.457 192.148 191.816 195.518C191.28 198.337 192.449 200.056 194.306 200.409C196.094 200.749 197.813 199.58 198.166 197.723C198.519 195.867 197.35 194.148 195.631 193.821C194.049 193.52 193.044 194.683 193.044 194.683C193.479 192.77 194.707 191.935 196.135 191.921C198.276 191.901 198.918 191.525 198.918 191.525L198.58 190.677ZM194.476 199.515C193.238 199.28 192.403 198.052 192.665 196.677C192.926 195.301 194.154 194.466 195.392 194.702C196.63 194.937 197.465 196.165 197.203 197.54C196.942 198.916 195.714 199.751 194.476 199.515ZM198.117 200.992C198.117 200.992 198.407 201.189 198.779 201.26C200.016 201.496 200.998 200.827 201.757 196.839L201.954 195.807L204.842 196.357L203.756 202.065L204.719 202.248L205.975 195.646L201.161 194.73L200.795 196.656C200.154 200.025 199.581 200.415 198.824 200.271C198.549 200.219 198.3 200.029 198.3 200.029L198.117 200.992ZM212.218 201.75C212.218 201.75 211.266 202.709 209.877 202.445C208.639 202.21 207.804 200.982 207.957 199.8L213.318 200.834C213.318 200.834 213.429 200.627 213.481 200.352C213.848 198.427 212.734 196.79 210.946 196.449C209.227 196.122 207.426 197.347 207.06 199.273C206.694 201.198 207.919 202.999 209.706 203.339C211.494 203.679 212.719 202.487 212.719 202.487L212.218 201.75ZM208.114 198.975C208.461 197.901 209.607 197.121 210.776 197.343C211.945 197.566 212.669 198.63 212.584 199.825L208.114 198.975ZM214.542 204.117L215.505 204.3L216.054 201.412L219.836 202.131L219.287 205.019L220.25 205.202L221.506 198.601L220.543 198.418L220.006 201.237L216.224 200.518L216.761 197.698L215.798 197.515L214.542 204.117ZM225.315 206.309C227.172 206.662 228.972 205.437 229.339 203.511C229.705 201.586 228.48 199.785 226.623 199.432C224.766 199.079 222.966 200.304 222.599 202.229C222.233 204.155 223.458 205.955 225.315 206.309ZM225.485 205.415C224.178 205.166 223.29 203.843 223.562 202.412C223.837 200.968 225.147 200.077 226.453 200.326C227.76 200.574 228.651 201.884 228.376 203.328C228.101 204.772 226.792 205.663 225.485 205.415ZM232.758 206.513C232.758 206.513 233.361 207.839 235.012 208.153C236.731 208.48 237.739 207.675 237.935 206.643C238.197 205.268 236.93 204.813 236.93 204.813C236.93 204.813 238.011 204.748 238.236 203.565C238.419 202.602 237.695 201.538 236.32 201.277C234.807 200.989 233.799 201.795 233.799 201.795L234.355 202.613C234.355 202.613 235.118 201.974 236.15 202.171C237.044 202.341 237.378 202.832 237.273 203.382C237.168 203.932 236.596 204.322 235.77 204.165L235.014 204.021L234.844 204.915L235.6 205.059C236.701 205.268 237.09 205.841 236.973 206.46C236.855 207.079 236.282 207.469 235.182 207.259C234.013 207.037 233.495 206.012 233.495 206.012L232.758 206.513ZM243.364 209.6L244.327 209.783L245.125 205.588C245.4 204.144 244.509 202.835 242.996 202.547C241.414 202.246 240.285 203.314 240.285 203.314L240.786 204.05C240.786 204.05 241.657 203.218 242.826 203.441C243.789 203.624 244.346 204.442 244.162 205.405L241.54 205.334C240.262 205.304 239.444 205.861 239.235 206.962C239.052 207.924 239.831 209.07 241.206 209.332C242.651 209.607 243.534 208.706 243.534 208.706L243.364 209.6ZM243.927 206.643C243.678 207.949 242.614 208.673 241.377 208.438C240.483 208.268 240.093 207.695 240.197 207.145C240.315 206.526 240.804 206.205 241.658 206.211L244.005 206.23L243.927 206.643ZM250.653 210.987L251.616 211.17L252.702 205.462L255.04 205.907L255.21 205.013L249.571 203.94L249.401 204.834L251.739 205.279L250.653 210.987ZM255.332 211.877L256.157 212.034L261.088 207.841L260.146 212.792L261.108 212.976L262.364 206.374L261.539 206.217L256.609 210.409L257.551 205.458L256.588 205.275L255.332 211.877ZM262.347 213.211L263.447 213.421L266.4 210.633L267.167 211.848L266.748 214.049L267.711 214.232L268.13 212.031L269.289 211.183L271.012 214.86L272.112 215.069L270.038 210.613L273.093 208.415L271.924 208.193L268.365 210.793L268.967 207.63L268.004 207.447L267.402 210.61L265.047 206.884L263.878 206.662L265.912 209.828L262.347 213.211ZM271.942 216.747L272.905 216.93L273.219 215.28L278.514 216.287L278.2 217.937L279.163 218.12L279.647 215.576L278.615 215.38L279.701 209.672L275.162 208.809L274.796 210.734C274.299 213.347 272.907 214.294 272.907 214.294L272.426 214.202L271.942 216.747ZM273.939 214.49C273.939 214.49 275.277 213.448 275.759 210.917L275.955 209.886L278.568 210.383L277.652 215.197L273.939 214.49ZM286.29 215.842C286.29 215.842 285.337 216.801 283.948 216.537C282.711 216.302 281.875 215.074 282.029 213.892L287.39 214.926C287.39 214.926 287.501 214.719 287.553 214.444C287.919 212.518 286.806 210.881 285.018 210.541C283.299 210.214 281.498 211.439 281.132 213.365C280.765 215.29 281.99 217.091 283.778 217.431C285.566 217.771 286.791 216.579 286.791 216.579L286.29 215.842ZM282.186 213.066C282.533 211.992 283.679 211.213 284.848 211.435C286.017 211.658 286.741 212.722 286.656 213.917L282.186 213.066ZM288.614 218.208L289.577 218.392L290.126 215.503L293.908 216.223L293.359 219.111L294.322 219.294L295.577 212.693L294.615 212.509L294.078 215.329L290.296 214.609L290.833 211.79L289.87 211.607L288.614 218.208ZM296.525 219.713L299.22 220.226C300.719 220.511 301.784 219.788 302.032 218.481C302.281 217.174 301.557 216.11 300.044 215.823L298.325 215.495L298.743 213.295L297.781 213.112L296.525 219.713ZM297.658 219.003L298.155 216.389L299.874 216.717C300.768 216.887 301.213 217.541 301.069 218.298C300.925 219.054 300.271 219.5 299.39 219.332L297.658 219.003Z" fill="#93A9C3"/>
<path d="M153.478 229.736C153.478 229.736 155.158 233.427 160.028 234.793L159.349 238.365L161.824 238.836L162.51 235.228C167.025 235.574 170.032 233.251 170.739 229.538C172.421 220.697 158.309 221.676 159.52 215.311C159.944 213.083 162.237 211.43 165.632 212.076C169.31 212.776 170.643 215.594 170.643 215.594L172.748 214.163C172.748 214.163 171.159 211.149 167.328 209.907L168.014 206.299L165.538 205.828L164.852 209.436C160.549 209.13 157.493 211.517 156.868 214.806C155.186 223.647 169.298 222.668 168.086 229.033C167.582 231.686 165.267 233.261 161.553 232.554C156.956 231.68 155.412 228.235 155.412 228.235L153.478 229.736ZM174.073 237.135L176.903 237.673L192.105 217.479L192.576 215.003L177.015 212.043L176.544 214.518L189.275 216.94L174.073 237.135ZM192.274 240.598L195.103 241.136L210.306 220.941L210.776 218.466L195.216 215.505L194.745 217.981L207.476 220.403L192.274 240.598ZM210.247 240.536C210.247 240.536 212.193 244.754 217.674 245.796C222.802 246.772 226.801 244.051 227.71 239.277C228.584 234.68 225.72 230.47 220.946 229.562C217.94 228.99 215.903 230.068 215.903 230.068L217.913 222.389L228.877 224.474L229.348 221.999L216.085 219.476L212.544 233.277L214.489 233.647C214.489 233.647 216.726 231.324 220.475 232.037C223.835 232.677 225.696 235.413 225.057 238.772C224.418 242.132 221.682 243.994 218.145 243.321C213.901 242.513 212.351 239.104 212.351 239.104L210.247 240.536ZM230.582 246.42C230.38 247.481 230.953 248.323 232.014 248.525C233.075 248.726 233.917 248.154 234.119 247.093C234.321 246.032 233.748 245.19 232.687 244.988C231.626 244.786 230.784 245.359 230.582 246.42ZM237.493 245.719C237.493 245.719 239.439 249.937 245.098 251.014C250.226 251.989 254.082 249.058 254.788 245.345C255.764 240.217 251.368 238.281 251.368 238.281C251.368 238.281 255.317 237.75 256.124 233.506C256.797 229.969 254.363 226.391 249.942 225.55C244.991 224.608 241.876 227.497 241.876 227.497L243.274 229.779C243.274 229.779 245.758 227.32 249.471 228.026C252.477 228.598 253.909 230.703 253.472 233.001C252.967 235.654 250.863 237.086 247.856 236.514L245.381 236.043L244.91 238.518L247.385 238.989C250.993 239.676 252.79 242.363 252.313 244.874C251.808 247.526 249.282 249.245 245.569 248.538C241.148 247.697 239.598 244.287 239.598 244.287L237.493 245.719ZM260.475 251.007C263.841 244.868 274.863 245.683 276.31 238.079C277.084 234.012 274.506 230.224 269.732 229.315C263.366 228.104 261.052 233.527 261.052 233.527L263.149 235.025C263.149 235.025 264.84 230.95 269.261 231.791C272.621 232.43 274.196 234.745 273.657 237.574C272.312 244.648 258.982 242.478 256.998 252.911L272.912 255.939L273.383 253.463L260.475 251.007Z" fill="black"/>
<path d="M260.108 275.897L264.863 287.428C265.413 288.762 267.15 289.092 268.152 288.054L276.809 279.074L260.108 275.897Z" fill="white"/>
<path d="M260.108 275.897L264.859 287.427C265.408 288.761 267.146 289.092 268.148 288.054L276.809 279.074" stroke="#E6EAEE"/>
<path fill-rule="evenodd" clip-rule="evenodd" d="M87.2544 102.281C102.834 93.8009 122.638 77.5709 145.377 72.791C164.827 68.7027 193.49 71.0986 199.929 75.2839C202.525 76.9707 196.942 87.5502 187.127 88.2314C204.732 89.2017 215.925 96.2618 217.783 97.3658C220.623 99.0546 213.22 108.891 202.376 106.631C215.591 111.469 221.824 112.158 225.944 116.26C228.701 119.004 219.214 129.878 202.902 126.049C182.198 121.192 166.111 114.924 159.351 116.217C174.973 124.177 183.603 133.705 185.994 144.5C187.788 152.594 187.992 169.5 187.992 169.5C187.992 169.5 184.492 169 181.492 168.5C170.992 166 173.586 170.007 173.586 155.972C169.994 145.5 163.662 141.101 153.794 137.128C143.929 133.155 115.359 140.067 111.255 155.972C107.152 171.876 115.338 182.671 128.395 186.007C137.838 188.42 148.086 192 148.086 202.5C140.575 208.775 134.395 202.381 108.086 202.5C85.3876 202.603 66.6406 176.218 54.8995 161.25C35.9769 137.131 14.8952 121.822 14.8952 121.822C22.3933 102.704 29.2535 94.0895 46.4328 82.6406C60.6849 94.5341 71.6752 110.762 87.2544 102.281Z" fill="#6774FF"/>
<path fill-rule="evenodd" clip-rule="evenodd" d="M153.663 94.5943C153.803 94.7166 153.985 94.7904 154.186 94.786C172.656 94.4191 200.1 102.646 206.439 104.865C206.839 105.008 207.281 104.798 207.423 104.393C207.565 103.988 207.343 103.549 206.948 103.407C200.558 101.165 172.857 92.8717 154.153 93.2381C153.727 93.2464 153.388 93.5983 153.395 94.0275C153.402 94.2567 153.503 94.4551 153.663 94.5943Z" fill="#505CD1"/>
<path fill-rule="evenodd" clip-rule="evenodd" d="M148.178 84.0163C148.349 84.1649 148.584 84.2391 148.825 84.194C167.252 80.8465 183.45 84.6542 190.368 86.2804L191.268 86.4902C191.684 86.588 192.095 86.3304 192.194 85.914C192.296 85.4933 192.024 85.0865 191.618 84.9881L190.72 84.7745C184.317 83.2677 167.292 79.2647 148.547 82.6715C148.129 82.7466 147.851 83.1536 147.926 83.571C147.956 83.7518 148.051 83.9056 148.178 84.0163Z" fill="#505CD1"/>
<path fill-rule="evenodd" clip-rule="evenodd" d="M141.395 199.507C124.192 192.479 101.264 195.238 77.1085 165.672C52.9548 136.103 38.7847 122.747 24.2745 119.005C55.8322 141.342 56.1528 153.238 74.8921 170.572C93.6332 187.907 106.895 197.007 119.395 197.007C133.135 196.959 141.395 199.507 141.395 199.507Z" fill="#505CD1"/>
<defs>
<filter id="filter0_d" x="258" y="298.001" width="12" height="55" filterUnits="userSpaceOnUse" color-interpolation-filters="sRGB">
<feFlood flood-opacity="0" result="BackgroundImageFix"/>
<feColorMatrix in="SourceAlpha" type="matrix" values="0 0 0 0 0 0 0 0 0 0 0 0 0 0 0 0 0 0 127 0"/>
<feOffset dy="4"/>
<feGaussianBlur stdDeviation="2"/>
<feColorMatrix type="matrix" values="0 0 0 0 0 0 0 0 0 0.807843 0 0 0 0 0.490196 0 0 0 0.2 0"/>
<feBlend mode="normal" in2="BackgroundImageFix" result="effect1_dropShadow"/>
<feBlend mode="normal" in="SourceGraphic" in2="effect1_dropShadow" result="shape"/>
</filter>
<filter id="filter1_d" x="114.062" y="149.831" width="240.945" height="159.806" filterUnits="userSpaceOnUse" color-interpolation-filters="sRGB">
<feFlood flood-opacity="0" result="BackgroundImageFix"/>
<feColorMatrix in="SourceAlpha" type="matrix" values="0 0 0 0 0 0 0 0 0 0 0 0 0 0 0 0 0 0 127 0"/>
<feOffset dy="4"/>
<feGaussianBlur stdDeviation="8"/>
<feColorMatrix type="matrix" values="0 0 0 0 0.490196 0 0 0 0 0.686275 0 0 0 0 0.741176 0 0 0 0.14 0"/>
<feBlend mode="normal" in2="BackgroundImageFix" result="effect1_dropShadow"/>
<feBlend mode="normal" in="SourceGraphic" in2="effect1_dropShadow" result="shape"/>
</filter>
</defs>
</svg>
