<svg width="9" height="12" viewBox="0 0 9 12" fill="none" xmlns="http://www.w3.org/2000/svg">
<path d="M0.562542 4.90904H8.43743C8.58978 4.90904 8.72165 4.8551 8.83294 4.74713C8.94416 4.63919 9 4.51137 9 4.36363C9 4.2159 8.94419 4.08814 8.83294 3.98005L4.89548 0.161911C4.78423 0.0540898 4.65244 0 4.5 0C4.34756 0 4.21577 0.0540898 4.10443 0.161911L0.166971 3.98005C0.0556262 4.08802 0 4.2159 0 4.36363C0 4.51134 0.0556262 4.63919 0.166971 4.74713C0.278439 4.8551 0.410224 4.90904 0.562542 4.90904Z" fill="#676793"/>
<path d="M8.43743 7.09106H0.562542C0.410101 7.09106 0.278316 7.14504 0.166971 7.25289C0.0556262 7.36086 0 7.48865 0 7.63638C0 7.78411 0.0556262 7.912 0.166971 8.01991L4.10443 11.838C4.2159 11.946 4.34768 12 4.5 12C4.65232 12 4.78423 11.946 4.89548 11.838L8.83294 8.01988C8.94416 7.912 9 7.78411 9 7.63635C9 7.48865 8.94419 7.36086 8.83294 7.25286C8.72168 7.14492 8.58978 7.09106 8.43743 7.09106Z" fill="#676793"/>
</svg>
