<svg width="14" height="10" viewBox="0 0 14 10" fill="none" xmlns="http://www.w3.org/2000/svg">
<path d="M1.34372 3.0824C1.52082 3.19601 2.05466 3.53343 2.94526 4.09449C3.8359 4.65555 4.51818 5.08755 4.99215 5.39052C5.04422 5.42373 5.15485 5.49592 5.3241 5.60719C5.49337 5.71854 5.63402 5.80852 5.74594 5.87715C5.85794 5.94576 5.99333 6.02273 6.15226 6.10793C6.31113 6.19305 6.46089 6.25709 6.60152 6.29948C6.74217 6.34221 6.87236 6.36338 6.99213 6.36338H6.99999H7.00787C7.12764 6.36338 7.25789 6.34219 7.39854 6.29948C7.53911 6.25709 7.689 6.19298 7.84774 6.10793C8.00656 6.02263 8.14196 5.94573 8.25395 5.87715C8.36595 5.80852 8.50649 5.71854 8.67582 5.60719C8.84504 5.49582 8.95581 5.42373 9.00788 5.39052C9.48696 5.08755 10.7058 4.3181 12.6641 3.08225C13.0443 2.84087 13.3619 2.54962 13.6171 2.20869C13.8724 1.86791 14 1.51041 14 1.1364C14 0.823853 13.8762 0.556309 13.6288 0.33379C13.3814 0.111222 13.0884 0 12.7499 0H1.24995C0.848931 0 0.540323 0.123088 0.324178 0.369264C0.108059 0.615489 0 0.923259 0 1.29255C0 1.59084 0.143276 1.91408 0.429692 2.26208C0.71608 2.6101 1.02086 2.88356 1.34372 3.0824Z" fill="#CCCCCC"/>
<path d="M13.2186 3.84215C11.5105 4.8932 10.2134 5.71004 9.32814 6.29249C9.03127 6.49128 8.79045 6.64646 8.6055 6.75765C8.42054 6.86893 8.17457 6.98256 7.86722 7.09851C7.55998 7.21463 7.27365 7.27252 7.00798 7.27252H7.00001H6.99216C6.72654 7.27252 6.44004 7.21463 6.1328 7.09851C5.82556 6.98256 5.57943 6.86893 5.39453 6.75765C5.20969 6.64646 4.96878 6.49128 4.67194 6.29249C3.96877 5.82377 2.67453 5.00688 0.789141 3.84215C0.492191 3.66235 0.229171 3.45625 0 3.22427V8.86336C0 9.17605 0.122343 9.44345 0.367166 9.66599C0.611934 9.88861 0.906258 9.99988 1.25003 9.99988H12.7501C13.0937 9.99988 13.388 9.88861 13.6328 9.66599C13.8777 9.44337 14 9.17608 14 8.86336V3.22427C13.776 3.45144 13.5157 3.65754 13.2186 3.84215Z" fill="#CCCCCC"/>
</svg>
