<svg width="18" height="19" viewBox="0 0 18 19" fill="none" xmlns="http://www.w3.org/2000/svg">
<g clip-path="url(#clip0)">
<path d="M18 9.6075C18 8.96911 17.9494 8.32726 17.8414 7.69922H9.1805V11.3156H14.1402C13.9344 12.482 13.2731 13.5138 12.3048 14.1694V16.516H15.2637C17.0013 14.8803 18 12.4647 18 9.6075Z" fill="#4285F4"/>
<path d="M9.18051 18.7831C11.657 18.7831 13.7455 17.9515 15.2671 16.516L12.3082 14.1694C11.4849 14.7423 10.4221 15.0666 9.18388 15.0666C6.78838 15.0666 4.75727 13.4137 4.0285 11.1914H0.975075V13.6104C2.53384 16.7817 5.70872 18.7831 9.18051 18.7831Z" fill="#34A853"/>
<path d="M4.02511 11.1905C3.64048 10.0241 3.64048 8.76114 4.02511 7.59478V5.17578H0.975064C-0.32728 7.82943 -0.32728 10.9558 0.975064 13.6095L4.02511 11.1905Z" fill="#FBBC04"/>
<path d="M9.18051 3.71713C10.4896 3.69642 11.7548 4.20024 12.7029 5.12505L15.3245 2.44379C13.6645 0.849526 11.4613 -0.0269734 9.18051 0.000632869C5.70872 0.000632869 2.53384 2.00209 0.975075 5.17681L4.02512 7.59581C4.75052 5.37005 6.78501 3.71713 9.18051 3.71713Z" fill="#EA4335"/>
</g>
<defs>
<clipPath id="clip0">
<rect width="18" height="18.7826" fill="white"/>
</clipPath>
</defs>
</svg>
