<svg viewBox="0 0 20 20" xmlns="http://www.w3.org/2000/svg" width="1.1em" height="1.1em" class="ButtonIcon__icon--N95hN"><path fill-rule="evenodd" clip-rule="evenodd" d="M15.48 5.58l-1.06-1.06-1.983 1.983C11.678 6.197 10.857 6 10 6c-3.866 0-7 4-7 4s1.257 1.604 3.16 2.78l-1.64 1.64 1.061 1.06 1.983-1.982c.758.306 1.58.502 2.436.502 3.866 0 7-4 7-4s-1.256-1.603-3.159-2.78l1.64-1.64zm-4.222 2.102A4.652 4.652 0 0010 7.5c-1.435 0-2.856.758-4.02 1.677-.359.283-.675.567-.94.823.265.256.581.54.94.823.398.314.826.61 1.275.862l1.747-1.747a1 1 0 01.936-.936l1.32-1.32zm-.26 2.381l1.748-1.748c.448.253.876.548 1.274.862.359.283.675.567.94.823-.265.256-.581.54-.94.823-1.164.919-2.585 1.677-4.02 1.677a4.66 4.66 0 01-1.257-.182l1.32-1.32a1 1 0 00.935-.935z"></path></svg>