<svg width="32" height="33" viewBox="0 0 32 33" fill="none" xmlns="http://www.w3.org/2000/svg">
<path d="M16 32.2531C31.8767 32.2531 32 25.0458 32 16.1549C32 7.26396 31.8767 0.0566406 16 0.0566406C0.123333 0.0566406 0 7.26396 0 16.1549C0 25.0458 0.123333 32.2531 16 32.2531Z" fill="#2E71F0"/>
<path fill-rule="evenodd" clip-rule="evenodd" d="M20.3042 7.43555H12.0828C10.933 7.43555 10.0009 8.35415 10.0009 9.48729V23.8494C10.0009 24.416 10.467 24.8753 11.0419 24.8753C11.5527 24.8753 12.0321 24.6284 12.3294 24.2123L22.0064 10.6686C22.9776 9.30925 21.9911 7.43555 20.3042 7.43555ZM20.5822 24.8753C22.2651 24.8753 23.2525 23.0094 22.2893 21.6493C21.2266 20.1487 20.5332 19.0341 19.5009 17.5427C19.2868 17.2332 18.5288 17.2341 18.3134 17.5427L13.7902 24.0357C13.542 24.3914 13.7241 24.8753 14.1572 24.8753L20.5822 24.8753Z" fill="white"/>
</svg>
