<svg width="11" height="14" viewBox="0 0 11 14" fill="none" xmlns="http://www.w3.org/2000/svg">
<path d="M10.7324 6.64206C10.5541 6.45643 10.3378 6.36369 10.083 6.36369H9.77764V4.45449C9.77764 3.23482 9.35761 2.18756 8.51728 1.31256C7.67702 0.43752 6.67141 0 5.49995 0C4.32852 0 3.32271 0.43752 2.48252 1.31252C1.64219 2.18756 1.22216 3.23478 1.22216 4.45449V6.36369H0.916647C0.662101 6.36369 0.445615 6.45643 0.267355 6.64206C0.0890962 6.82754 0 7.05297 0 7.31828V13.0455C0 13.3105 0.0891296 13.536 0.267355 13.7217C0.445615 13.9072 0.662101 14 0.916647 14H10.0833C10.338 14 10.5543 13.9073 10.7326 13.7217C10.9107 13.536 11 13.3105 11 13.0455V7.31817C11.0001 7.05307 10.9107 6.82768 10.7324 6.64206ZM7.94438 6.36369H3.05552V4.45449C3.05552 3.75188 3.29428 3.15193 3.7717 2.65486C4.24919 2.15772 4.82524 1.9092 5.50005 1.9092C6.17493 1.9092 6.75084 2.15768 7.22836 2.65486C7.70565 3.1519 7.94438 3.75188 7.94438 4.45449V6.36369Z" fill="#CCCCCC"/>
</svg>
