<svg width="94" height="43" viewBox="0 0 94 43" fill="none" xmlns="http://www.w3.org/2000/svg">
<path d="M46.0664 24.3197H47.5272V27.6167H48.5826L50.4765 24.3197H52.0735L49.8004 28.1892V28.2163L52.2089 32.439H50.5581L48.6095 28.8964H47.5549V32.439H46.0933V24.3189H46.0664V24.3197ZM55.4829 26.4726C57.2405 26.4726 58.6753 27.7531 58.6753 29.524C58.6753 31.3228 57.2683 32.5762 55.5098 32.5762C53.7505 32.5762 52.3435 31.3228 52.3435 29.524C52.3166 27.726 53.7236 26.4726 55.4829 26.4726ZM59.8114 26.6081H61.1915V31.1864H63.0046V26.6089H64.3838V31.1864H66.197V26.6089H67.5771V32.439H59.8653V26.6081H59.8114ZM71.6634 26.4726C73.3134 26.4726 74.2334 27.6989 74.2334 29.225C74.2289 29.4166 74.2109 29.6076 74.1796 29.7967H70.2018C70.2833 30.8045 71.068 31.3499 71.9342 31.3499C72.5288 31.3499 73.1242 31.0772 73.5842 30.7232L74.1527 31.7589C73.5573 32.2755 72.6642 32.6033 71.8257 32.6033C69.9041 32.6033 68.7141 31.2135 68.7141 29.5511C68.7141 27.726 69.931 26.4726 71.6634 26.4726ZM74.9096 31.2135C75.6135 31.1043 76.1273 30.5055 76.1273 28.434V26.6089H80.3491V32.439H78.9143V27.7793H77.5074V28.4331C77.5074 30.9671 76.8312 32.439 74.9096 32.4932V31.2127V31.2135ZM84.4615 26.4726C86.1115 26.4726 87.0315 27.6989 87.0315 29.225C87.027 29.4166 87.009 29.6076 86.9777 29.7967H82.9998C83.0814 30.8045 83.8661 31.3499 84.7323 31.3499C85.3268 31.3499 85.9223 31.0772 86.3823 30.7232L86.9508 31.7589C86.3554 32.2755 85.4622 32.6033 84.6238 32.6033C82.703 32.6033 81.5121 31.2135 81.5121 29.5511C81.5121 27.726 82.7299 26.4726 84.4615 26.4726ZM88.2223 26.6081H89.6562V28.843H90.3601L91.7671 26.6089H93.3633L91.5232 29.3876V29.4156L93.5794 32.439H91.9025L90.387 30.0694H89.6302V32.439H88.1946V26.6081H88.2215H88.2223ZM55.4829 31.3228C56.4298 31.3228 57.2145 30.5868 57.2145 29.4969C57.2145 28.434 56.4298 27.6709 55.482 27.6709C54.5359 27.6709 53.7782 28.4077 53.7782 29.4969C53.7782 30.5868 54.5351 31.3228 55.4829 31.3228ZM72.7727 28.7888C72.7727 28.0258 72.258 27.5625 71.6087 27.5625C70.8788 27.5625 70.3372 28.0529 70.2018 28.7888H72.7727ZM85.5707 28.7888C85.5707 28.0258 85.0569 27.5625 84.4076 27.5625C83.676 27.5625 83.1352 28.0529 82.9998 28.7888H85.5707Z" fill="#2D3540"/>
<path d="M66.2781 6.63551V20.396C66.2793 20.4464 66.2703 20.4965 66.2516 20.5432C66.233 20.59 66.2052 20.6324 66.1698 20.6681C66.1345 20.7037 66.0923 20.7317 66.0458 20.7505C65.9994 20.7692 65.9497 20.7783 65.8997 20.7771H63.1127C63.0626 20.7783 63.0129 20.7692 62.9665 20.7505C62.92 20.7317 62.8779 20.7037 62.8425 20.6681C62.8071 20.6324 62.7793 20.59 62.7607 20.5432C62.7421 20.4965 62.7331 20.4464 62.7342 20.396V6.63551C62.7331 6.58514 62.7421 6.53506 62.7607 6.4883C62.7793 6.44154 62.8071 6.39907 62.8425 6.36344C62.8779 6.32782 62.92 6.29979 62.9665 6.28105C63.0129 6.26231 63.0626 6.25324 63.1127 6.2544H65.8997C65.9497 6.25324 65.9994 6.26231 66.0458 6.28105C66.0923 6.29979 66.1345 6.32782 66.1698 6.36344C66.2052 6.39907 66.233 6.44154 66.2516 6.4883C66.2703 6.53506 66.2793 6.58514 66.2781 6.63551ZM88.0326 6.2544C88.1411 6.2544 88.2765 6.3086 88.4111 6.41785C88.4927 6.49915 88.4927 6.63551 88.4658 6.74476L83.8656 20.5324C83.8377 20.6037 83.7894 20.6651 83.7268 20.7088C83.6642 20.7525 83.5902 20.7766 83.514 20.778H81.0247C80.8624 20.778 80.727 20.6958 80.6732 20.5324L77.993 12.4944L75.3145 20.5315C75.2865 20.6029 75.2383 20.6643 75.1757 20.708C75.1131 20.7517 75.0391 20.7758 74.9629 20.7771H72.4736C72.3113 20.7771 72.1759 20.6958 72.1221 20.5315L67.5219 6.74391C67.495 6.63551 67.495 6.52625 67.5758 6.41785C67.6304 6.3086 67.7658 6.2544 67.8735 6.2544H70.9851C71.1474 6.2544 71.2828 6.3628 71.3375 6.52626L73.799 14.6735L76.5053 6.52626C76.5332 6.45491 76.5815 6.39349 76.6441 6.34978C76.7067 6.30606 76.7807 6.28201 76.8568 6.28065H79.0484C79.2107 6.28065 79.3461 6.3628 79.4 6.52626L82.1063 14.6735L84.5686 6.52626C84.5907 6.44907 84.6368 6.38104 84.7 6.33212C84.7633 6.2832 84.8404 6.25596 84.9202 6.2544H88.0318H88.0326ZM92.7405 6.2544C92.9297 6.2544 93.092 6.41785 93.1189 6.63551V20.396C93.1201 20.4464 93.1111 20.4965 93.0924 20.5432C93.0738 20.59 93.046 20.6324 93.0106 20.6681C92.9753 20.7037 92.9331 20.7317 92.8866 20.7505C92.8402 20.7692 92.7905 20.7783 92.7405 20.7771H89.9535C89.9034 20.7783 89.8537 20.7692 89.8073 20.7505C89.7608 20.7317 89.7187 20.7037 89.6833 20.6681C89.6479 20.6324 89.6201 20.59 89.6015 20.5432C89.5829 20.4965 89.5739 20.4464 89.575 20.396V6.63551C89.5739 6.58514 89.5829 6.53506 89.6015 6.4883C89.6201 6.44154 89.6479 6.39907 89.6833 6.36344C89.7187 6.32782 89.7608 6.29979 89.8073 6.28105C89.8537 6.26231 89.9034 6.25324 89.9535 6.2544H92.7405ZM61.1103 20.2876C61.2726 20.4782 61.1372 20.75 60.8933 20.75H57.484C57.4168 20.7518 57.3502 20.738 57.2892 20.7097C57.2282 20.6813 57.1746 20.6392 57.1324 20.5866L56.5648 19.8785C55.3739 20.6408 53.9661 21.1049 52.4784 21.1049C48.3122 21.1049 44.9298 17.6986 44.9298 13.5022C44.9298 9.3058 48.3122 5.89955 52.4784 5.89955C56.6455 5.89955 60.0279 9.3058 60.0279 13.5022C60.0279 15.0012 59.5948 16.4181 58.8371 17.6165L61.1103 20.2868V20.2876ZM32.6178 26.9629C33.3217 27.2356 33.5925 28.2976 33.6463 28.7609C33.7548 29.6061 33.5117 29.933 33.2409 29.933C32.9701 29.933 32.5909 29.6061 32.1855 28.9523C31.7793 28.2976 31.617 27.5625 31.834 27.1806C31.9685 26.935 32.2663 26.8266 32.6186 26.9629H32.6178ZM28.5054 30.0422C28.9385 30.0422 29.4254 30.2328 29.8585 30.6139C30.697 31.3228 30.9409 32.14 30.5078 32.7396C30.2639 33.0394 29.8585 33.23 29.3985 33.23C28.9385 33.23 28.4516 33.0665 28.1269 32.7667C27.3692 32.1129 27.1531 31.0221 27.6392 30.4234C27.8292 30.1778 28.1269 30.0422 28.5054 30.0422ZM19.0359 37.9168C8.75322 37.9168 0.419922 29.5239 0.419922 19.1697C0.419922 8.81544 8.75406 0.423462 19.0351 0.423462C29.3169 0.423462 37.6511 8.81628 37.6511 19.1697C37.6511 22.6843 36.6772 25.9822 35.0272 28.7888C34.9725 28.8701 34.8371 28.843 34.8102 28.7338C34.161 24.1292 31.374 21.5944 27.3154 20.8322C26.963 20.7771 26.9092 20.5595 27.3692 20.5053C28.6139 20.396 30.3724 20.4231 31.2924 20.5866C31.3462 20.1233 31.374 19.6329 31.374 19.1426C31.374 12.303 25.8538 6.74391 19.062 6.74391C12.271 6.74391 6.75084 12.303 6.75084 19.1426C6.75084 25.9822 12.2711 31.5413 19.0628 31.5413H19.6305C19.4376 30.435 19.3559 29.312 19.3866 28.1892C19.4144 27.4262 19.5767 27.3169 19.9013 27.9165C21.606 30.8866 24.0414 33.5569 28.8031 34.6198C32.6994 35.4921 36.5956 36.4999 40.7896 41.8676C41.1681 42.3308 40.6004 42.8212 40.1673 42.4401C35.8926 38.6248 31.9963 37.3714 28.4516 37.3714C24.4737 37.3993 21.7683 37.9168 19.0351 37.9168H19.0359ZM54.3454 17.2354L52.8569 15.4094C52.6954 15.2189 52.8308 14.9191 53.0738 14.9191H56.2124C56.3747 14.4829 56.4563 13.9926 56.4563 13.5022C56.4563 11.241 54.7785 9.27869 52.4784 9.27869C50.1792 9.27869 48.5006 11.241 48.5006 13.5022C48.5006 15.7634 50.1792 17.6986 52.4784 17.6986C53.1277 17.7257 53.7777 17.5352 54.3454 17.2354Z" fill="#FF8C00"/>
</svg>
