<svg width="48" height="48" viewBox="0 0 48 48" fill="none" xmlns="http://www.w3.org/2000/svg">
<path d="M24 48C37.2548 48 48 37.2548 48 24C48 10.7452 37.2548 0 24 0C10.7452 0 0 10.7452 0 24C0 37.2548 10.7452 48 24 48Z" fill="#11A5EE"/>
<path d="M29.8265 28.8921C30.5754 26.8741 33.3195 19.2008 33.7601 17.188C34.2593 14.9129 33.2153 14.6912 30.8434 15.4539C28.4715 16.2174 22.3886 18.4381 21.3647 18.7962C20.3399 19.1542 15.3561 20.8047 14.3226 21.2964C12.2117 22.412 13.2383 24.1142 15.5979 24.9977C22.6513 28.3322 20.6482 26.6334 23.797 32.8038C24.4451 34.3801 25.9735 37.065 27.4362 35.0349C28.2061 33.8806 29.2362 30.4787 29.8256 28.8921H29.8265Z" fill="white"/>
</svg>
