<svg width="605" height="499" viewBox="0 0 605 499" fill="none" xmlns="http://www.w3.org/2000/svg">
<rect opacity="0.1" x="127.5" y="63.5" width="239" height="239" rx="119.5" stroke="url(#paint0_linear)" stroke-dasharray="2 2"/>
<rect opacity="0.1" x="0.5" y="96.5" width="197" height="197" rx="98.5" stroke="url(#paint1_linear)" stroke-dasharray="2 2"/>
<rect opacity="0.2" x="234.5" y="76.5" width="335" height="335" rx="167.5" stroke="url(#paint2_linear)" stroke-dasharray="2 2"/>
<rect opacity="0.05" x="64.5" y="0.5" width="365" height="365" rx="182.5" stroke="url(#paint3_linear)"/>
<rect opacity="0.2" x="178.5" y="114.5" width="137" height="137" rx="68.5" stroke="url(#paint4_linear)" stroke-dasharray="2 2"/>
<circle cx="245.5" cy="306.5" r="22.5" fill="white"/>
<path fill-rule="evenodd" clip-rule="evenodd" d="M247.254 308.814C247.254 308.814 247.83 308.864 248.139 308.486L248.744 307.74C249.036 307.368 249.741 307.132 250.431 307.509C251.344 308.015 252.524 308.811 253.333 309.552C253.778 309.921 253.882 310.465 253.578 311.039L253.576 311.051C253.262 311.592 252.845 312.1 252.317 312.573L252.305 312.581C251.711 313.068 251.028 313.35 250.297 313.117L250.284 313.099C248.971 312.734 245.822 311.157 243.816 309.586C240.534 307.042 238.2 302.846 237.555 300.597L237.535 300.584C237.297 299.864 237.587 299.192 238.08 298.61L238.09 298.6C238.572 298.081 239.087 297.67 239.64 297.364L239.652 297.361C240.235 297.063 240.789 297.163 241.165 297.602C241.661 298.105 242.591 299.314 243.245 300.452C243.628 301.129 243.388 301.822 243.011 302.107L242.25 302.701C241.866 303.007 241.916 303.573 241.916 303.573C241.916 303.573 243.042 307.758 247.254 308.814ZM253.879 305.345C253.654 305.345 253.47 305.165 253.469 304.944C253.45 302.517 252.707 300.584 251.263 299.199C249.815 297.813 247.986 297.102 245.825 297.088C245.598 297.087 245.416 296.905 245.419 296.682C245.42 296.461 245.602 296.283 245.828 296.283H245.831C248.21 296.299 250.23 297.087 251.835 298.622C253.442 300.163 254.268 302.289 254.289 304.939C254.29 305.16 254.109 305.342 253.882 305.345H253.879ZM251.726 304.517H251.716C251.489 304.512 251.31 304.327 251.315 304.106C251.348 302.729 250.947 301.615 250.092 300.699C249.241 299.785 248.073 299.287 246.521 299.175C246.295 299.158 246.125 298.966 246.141 298.744C246.159 298.523 246.354 298.356 246.58 298.372C248.327 298.498 249.713 299.098 250.697 300.155C251.687 301.216 252.171 302.552 252.135 304.123C252.129 304.342 251.947 304.517 251.726 304.517ZM249.622 303.825C249.405 303.825 249.224 303.658 249.213 303.441C249.144 302.076 248.488 301.407 247.151 301.336C246.924 301.324 246.751 301.134 246.764 300.913C246.776 300.69 246.967 300.52 247.194 300.532C248.96 300.625 249.941 301.618 250.031 303.402C250.043 303.623 249.869 303.813 249.642 303.823L249.622 303.825ZM258.827 308.425C258.01 314.893 253.193 315.301 252.305 315.581C251.927 315.7 248.414 316.558 243.998 316.276C243.998 316.276 240.706 320.175 239.679 321.189C239.518 321.347 239.33 321.411 239.204 321.382C239.027 321.339 238.978 321.132 238.981 320.833L239.008 315.507V315.505C232.578 313.751 232.952 307.157 233.025 303.705C233.098 300.253 233.758 297.425 235.72 295.523C239.244 292.388 246.504 292.856 246.504 292.856C252.636 292.883 255.574 294.696 256.256 295.303C258.517 297.205 259.669 301.757 258.827 308.425ZM257.946 293.688C257.14 292.961 253.886 290.64 246.638 290.608C246.638 290.608 238.091 290.102 233.924 293.857C231.604 296.136 230.789 299.468 230.702 303.602C230.617 307.737 230.505 315.482 238.107 317.582L238.115 317.585L238.11 320.789C238.11 320.789 238.063 322.087 238.932 322.352C239.984 322.672 240.601 321.687 241.607 320.623C242.158 320.04 242.918 319.183 243.493 318.528C248.693 318.955 252.691 317.975 253.146 317.83C254.195 317.495 260.136 316.748 261.103 309.002C262.1 301.016 260.62 295.966 257.946 293.688Z" fill="#8A34CD"/>
<path d="M127 139L130.517 126.25C128.231 122.293 127 117.897 127 113.324C127 99.4311 138.431 88 152.412 88C166.393 88 178 99.4311 178 113.324C178 127.217 166.393 139 152.412 139C148.015 139 143.795 137.593 140.014 135.483L127 139Z" fill="#EDEDED"/>
<path d="M140.717 130.91L141.509 131.35C144.762 133.372 148.543 134.603 152.5 134.603C164.019 134.603 173.603 125.019 173.603 113.324C173.603 101.629 164.019 92.3965 152.412 92.3965C140.805 92.3965 131.396 101.717 131.396 113.324C131.396 117.369 132.54 121.326 134.65 124.667L135.178 125.459L133.155 132.845L140.717 130.91Z" fill="#55CD6C"/>
<path d="M145.641 101.541L143.97 101.453C143.443 101.453 142.915 101.629 142.563 101.981C141.772 102.685 140.453 104.003 140.101 105.762C139.486 108.4 140.453 111.566 142.739 114.732C145.026 117.897 149.422 122.998 157.16 125.196C159.622 125.899 161.557 125.46 163.139 124.492C164.37 123.701 165.162 122.47 165.426 121.151L165.689 119.92C165.777 119.568 165.601 119.128 165.25 118.953L159.71 116.402C159.358 116.226 158.919 116.314 158.655 116.666L156.457 119.48C156.281 119.656 156.017 119.744 155.753 119.656C154.258 119.128 149.246 117.018 146.52 111.742C146.432 111.478 146.432 111.214 146.608 111.038L148.719 108.664C148.895 108.4 148.982 108.049 148.895 107.785L146.345 102.069C146.256 101.805 145.993 101.541 145.641 101.541Z" fill="#FEFEFE"/>
<g filter="url(#filter0_d)">
<rect x="215" y="151" width="64" height="64" rx="32" fill="white"/>
</g>
<path d="M254.213 200C257.269 200 259.062 196.362 257.313 193.711L250.719 183.713C250.264 183.023 250.266 182.104 250.724 181.416L256.794 172.305C258.559 169.655 256.768 166 253.704 166H252.485H242.48H238.78C236.692 166 235 167.791 235 170V196C235 198.209 236.692 200 238.78 200H242.48H252.953H254.213Z" fill="#FD2A47"/>
<path d="M252.485 166H253.709C256.772 166 258.563 169.653 256.799 172.303L238.368 200H236.89C235.846 200 235 199.105 235 198V170C235 167.791 236.692 166 238.78 166H242.48H252.485Z" fill="url(#paint5_linear)"/>
<path d="M255.049 200C258.237 200 260.108 196.362 258.283 193.711L251.403 183.713C250.927 183.023 250.93 182.104 251.408 181.416L257.742 172.305C259.584 169.655 257.715 166 254.517 166H253.245H242.805H238.945C236.766 166 235 167.791 235 170V196C235 198.209 236.766 200 238.945 200H242.805H253.733H255.049Z" fill="#312A7D"/>
<path d="M253.245 166H254.522C257.718 166 259.587 169.653 257.747 172.303L238.514 200H236.972C235.883 200 235 199.105 235 198V170C235 167.791 236.766 166 238.945 166H242.805H253.245Z" fill="url(#paint6_linear)"/>
<path d="M307.167 214.121C306.068 214.755 305.158 215.594 304.452 216.564C301.57 214.239 297.513 213.754 294.208 215.662C292.98 216.371 291.987 217.335 291.252 218.454C288.446 216.62 284.795 216.362 281.772 218.107C280.884 218.62 280.121 219.268 279.487 220.011L274.337 211.091C271.758 206.624 266.139 205.022 261.811 207.52C257.484 210.019 256.062 215.686 258.641 220.153L277.172 252.249L267.692 248.882C267.626 248.86 267.56 248.839 267.494 248.82C265.13 248.154 262.668 248.451 260.559 249.654C260.546 249.662 260.533 249.669 260.519 249.677C258.422 250.888 256.937 252.852 256.337 255.212C255.279 259.372 257.416 263.405 262.203 266.279C268.397 269.995 274.676 273.247 280.216 276.117C284.265 278.214 288.089 280.195 291.058 281.943C293.634 283.461 301.238 288.818 301.315 288.872C302.302 289.568 303.586 289.635 304.61 289.043L338.173 269.665C339.326 269 339.907 267.648 339.611 266.319C339.085 263.962 334.36 243.097 330.415 236.264L319.693 217.692C317.113 213.224 311.494 211.622 307.167 214.121Z" fill="white"/>
<path opacity="0.1" d="M307.167 214.121C306.068 214.755 305.158 215.594 304.452 216.564C301.57 214.239 297.513 213.754 294.208 215.662C292.98 216.371 291.987 217.335 291.252 218.454C288.446 216.62 284.795 216.362 281.772 218.107C280.884 218.62 280.121 219.268 279.487 220.011L274.337 211.091C271.758 206.624 266.139 205.022 261.811 207.52C257.484 210.019 256.062 215.686 258.641 220.153L277.172 252.249L267.692 248.882C267.626 248.86 267.56 248.839 267.494 248.82C265.13 248.154 262.668 248.451 260.559 249.654C260.546 249.662 260.533 249.669 260.519 249.677C258.422 250.888 256.937 252.852 256.337 255.212C255.279 259.372 257.416 263.405 262.203 266.279C268.397 269.995 274.676 273.247 280.216 276.117C284.265 278.214 288.089 280.195 291.058 281.943C293.634 283.461 301.238 288.818 301.315 288.872C302.302 289.568 303.586 289.635 304.61 289.043L338.173 269.665C339.326 269 339.907 267.648 339.611 266.319C339.085 263.962 334.36 243.097 330.415 236.264L319.693 217.692C317.113 213.224 311.494 211.622 307.167 214.121ZM309.307 223.688C308.46 222.221 308.909 220.371 310.309 219.563C311.709 218.754 313.537 219.29 314.384 220.757L325.106 239.329C327.728 243.87 331.372 258.044 333.084 265.347L303.142 282.634C300.686 280.921 296.112 277.763 294.074 276.562C290.956 274.725 287.057 272.706 282.93 270.568C277.473 267.742 271.287 264.538 265.262 260.924C263.689 259.979 261.901 258.513 262.314 256.892C262.505 256.135 262.995 255.515 263.676 255.111C264.347 254.728 265.125 254.624 265.878 254.813L283.047 260.909C284.267 261.343 285.61 260.969 286.415 259.973C287.22 258.977 287.32 257.565 286.665 256.432L263.95 217.088C263.103 215.621 263.554 213.771 264.954 212.963C266.354 212.154 268.182 212.689 269.029 214.156L283.698 239.563C284.566 241.066 286.458 241.598 287.923 240.752C289.389 239.906 289.874 238.001 289.006 236.498L283.911 227.674C283.065 226.208 283.515 224.358 284.915 223.55C286.315 222.741 288.142 223.276 288.989 224.742L296.133 237.116C297.001 238.62 298.893 239.152 300.358 238.306C301.824 237.459 302.31 235.555 301.441 234.052L296.348 225.229C295.501 223.762 295.951 221.912 297.351 221.104C298.751 220.295 300.579 220.831 301.426 222.297L308.57 234.672C309.438 236.175 311.33 236.707 312.796 235.861C314.262 235.015 314.747 233.11 313.879 231.607L309.307 223.688Z" fill="black"/>
<path d="M367 92C367 111.337 351.337 127 332 127C312.662 127 297 111.337 297 92C297 72.6625 312.662 57 332 57C351.337 57 367 72.6625 367 92Z" fill="url(#paint7_linear)"/>
<path d="M325.584 108.042C324.446 108.042 324.65 107.604 324.242 106.525L320.917 95.5584L341.567 82.6667L343.988 83.3084L341.975 88.7917L325.584 108.042Z" fill="#E5E5E5"/>
<path d="M325.583 108.042C326.458 108.042 326.837 107.633 327.333 107.167C328.091 106.438 337.833 96.9583 337.833 96.9583L331.854 95.5L326.312 99L325.583 107.75V108.042Z" fill="#CBC1C1"/>
<path d="M326.166 99.1166L340.283 109.529C341.887 110.404 343.054 109.967 343.462 108.042L349.208 80.975C349.791 78.6125 348.304 77.5625 346.758 78.2625L313.041 91.2708C310.737 92.2041 310.766 93.4875 312.633 94.0416L321.295 96.7541L341.333 84.125C342.266 83.5416 343.141 83.8625 342.441 84.5041L326.166 99.1166Z" fill="url(#paint8_linear)"/>
<g filter="url(#filter1_d)">
<circle cx="192.5" cy="224.5" r="20.5" fill="white"/>
</g>
<path d="M202.838 218.695L201.434 233H184.565L183.434 218.971L192.999 224.404L202.838 218.695Z" fill="#F2F2F2"/>
<path d="M202.361 216L192.999 224.921L183.637 216H192.999H202.361Z" fill="#F2F2F2"/>
<path d="M184.566 220.119V233H183.037C182.465 233 182 232.529 182 231.948V218.222L183.676 218.268L184.566 220.119Z" fill="#F14336"/>
<path d="M204 218.222V231.948C204 232.529 203.536 233 202.963 233H201.435V220.119L202.281 218.092L204 218.222Z" fill="#D32E2A"/>
<path d="M204 217.052V218.222L201.434 220.119L193 226.355L184.566 220.119L182 218.222V217.052C182 216.471 182.465 216 183.037 216H183.638L193 222.922L202.362 216H202.962C203.535 216 204 216.471 204 217.052Z" fill="#F14336"/>
<path d="M184.566 220.119L182 219.716V218.222L184.566 220.119Z" fill="#D32E2A"/>
<path d="M361.5 476.5L502.5 50.5L604.5 84.5V499L361.5 476.5Z" fill="white"/>
<path d="M99 278C89.0595 278 81 285.461 81 294.666C81 299.91 83.6168 304.588 87.7072 307.644V314L93.8363 310.636C95.472 311.089 97.2045 311.334 99 311.334C108.941 311.334 117 303.873 117 294.668C117 285.461 108.941 278 99 278Z" fill="#1E88E5"/>
<path d="M100.789 300.443L96.2055 295.554L87.2617 300.443L97.0987 289.999L101.794 294.888L110.628 289.999L100.789 300.443Z" fill="#FAFAFA"/>
<g filter="url(#filter2_d)">
<path d="M408.992 212V200.789H385.008C386.102 199.07 387.742 197.312 389.93 195.594C392.078 193.875 394.188 192.312 396.258 190.945C398.328 189.578 400.359 188.094 402.352 186.453C404.305 184.812 405.906 182.859 407.156 180.516C408.367 178.211 408.992 175.633 408.992 172.781C408.992 167.742 407.117 163.484 403.445 160.008C399.773 156.57 395.086 154.812 389.383 154.812C386.453 154.812 383.758 155.32 381.336 156.258C378.914 157.195 377.039 158.25 375.711 159.383C374.383 160.555 373.211 161.883 372.195 163.406C371.18 164.93 370.555 165.984 370.32 166.57C370.086 167.195 369.891 167.664 369.812 168.016L379.812 172.781L380.438 171.102C380.906 170.008 381.844 168.875 383.328 167.703C384.812 166.57 386.57 165.984 388.602 165.984C391.141 165.984 393.094 166.648 394.5 167.938C395.906 169.227 396.609 170.984 396.609 173.211C396.609 175.125 395.906 176.922 394.578 178.562C393.25 180.203 391.57 181.648 389.617 182.898C387.664 184.148 385.516 185.633 383.211 187.391C380.867 189.148 378.719 190.984 376.766 192.938C374.773 194.891 373.133 197.508 371.805 200.828C370.477 204.188 369.812 207.898 369.812 212H408.992ZM454.188 191.609V155.984H440.203L415.789 190.008V202H442.195V212H454.188V202H460.594V191.609H454.188ZM442.195 191.609H427L442.195 170.008V191.609ZM478.25 155.984H467.43V212H478.25V191.609C478.25 188.68 478.953 186.414 480.398 184.812C481.805 183.211 483.758 182.391 486.219 182.391C488.445 182.391 490.281 183.133 491.688 184.617C493.094 186.102 493.836 188.016 493.836 190.398V212H504.617V189.188C504.617 183.953 503.172 179.773 500.359 176.648C497.547 173.562 493.875 172 489.422 172C487.273 172 485.242 172.547 483.289 173.562C481.336 174.617 480.086 175.438 479.539 176.062C478.992 176.688 478.523 177.195 478.211 177.625L478.25 155.984Z" fill="white"/>
</g>
<defs>
<filter id="filter0_d" x="195" y="135" width="104" height="104" filterUnits="userSpaceOnUse" color-interpolation-filters="sRGB">
<feFlood flood-opacity="0" result="BackgroundImageFix"/>
<feColorMatrix in="SourceAlpha" type="matrix" values="0 0 0 0 0 0 0 0 0 0 0 0 0 0 0 0 0 0 127 0"/>
<feOffset dy="4"/>
<feGaussianBlur stdDeviation="10"/>
<feColorMatrix type="matrix" values="0 0 0 0 0 0 0 0 0 0 0 0 0 0 0 0 0 0 0.1 0"/>
<feBlend mode="normal" in2="BackgroundImageFix" result="effect1_dropShadow"/>
<feBlend mode="normal" in="SourceGraphic" in2="effect1_dropShadow" result="shape"/>
</filter>
<filter id="filter1_d" x="152" y="188" width="81" height="81" filterUnits="userSpaceOnUse" color-interpolation-filters="sRGB">
<feFlood flood-opacity="0" result="BackgroundImageFix"/>
<feColorMatrix in="SourceAlpha" type="matrix" values="0 0 0 0 0 0 0 0 0 0 0 0 0 0 0 0 0 0 127 0"/>
<feOffset dy="4"/>
<feGaussianBlur stdDeviation="10"/>
<feColorMatrix type="matrix" values="0 0 0 0 0 0 0 0 0 0 0 0 0 0 0 0 0 0 0.1 0"/>
<feBlend mode="normal" in2="BackgroundImageFix" result="effect1_dropShadow"/>
<feBlend mode="normal" in="SourceGraphic" in2="effect1_dropShadow" result="shape"/>
</filter>
<filter id="filter2_d" x="339.812" y="128.812" width="194.805" height="117.188" filterUnits="userSpaceOnUse" color-interpolation-filters="sRGB">
<feFlood flood-opacity="0" result="BackgroundImageFix"/>
<feColorMatrix in="SourceAlpha" type="matrix" values="0 0 0 0 0 0 0 0 0 0 0 0 0 0 0 0 0 0 127 0"/>
<feOffset dy="4"/>
<feGaussianBlur stdDeviation="15"/>
<feColorMatrix type="matrix" values="0 0 0 0 0 0 0 0 0 0 0 0 0 0 0 0 0 0 0.1 0"/>
<feBlend mode="normal" in2="BackgroundImageFix" result="effect1_dropShadow"/>
<feBlend mode="normal" in="SourceGraphic" in2="effect1_dropShadow" result="shape"/>
</filter>
<linearGradient id="paint0_linear" x1="247" y1="63" x2="247" y2="303" gradientUnits="userSpaceOnUse">
<stop stop-color="#346FEB"/>
<stop offset="1" stop-color="#FD2A47"/>
</linearGradient>
<linearGradient id="paint1_linear" x1="99" y1="96" x2="99" y2="294" gradientUnits="userSpaceOnUse">
<stop stop-color="#346FEB"/>
<stop offset="1" stop-color="#FD2A47"/>
</linearGradient>
<linearGradient id="paint2_linear" x1="402" y1="76" x2="402" y2="412" gradientUnits="userSpaceOnUse">
<stop stop-color="#346FEB"/>
<stop offset="1" stop-color="#FD2A47"/>
</linearGradient>
<linearGradient id="paint3_linear" x1="247" y1="0" x2="247" y2="366" gradientUnits="userSpaceOnUse">
<stop stop-color="#346FEB"/>
<stop offset="1" stop-color="#FD2A47"/>
</linearGradient>
<linearGradient id="paint4_linear" x1="247" y1="114" x2="247" y2="252" gradientUnits="userSpaceOnUse">
<stop stop-color="#346FEB"/>
<stop offset="1" stop-color="#FD2A47"/>
</linearGradient>
<linearGradient id="paint5_linear" x1="236.684" y1="167.288" x2="261.739" y2="202.018" gradientUnits="userSpaceOnUse">
<stop stop-color="#2E71F0"/>
<stop offset="0.789326" stop-color="#EA213C"/>
</linearGradient>
<linearGradient id="paint6_linear" x1="236.757" y1="167.288" x2="261.458" y2="203.015" gradientUnits="userSpaceOnUse">
<stop stop-color="#47D3FF"/>
<stop offset="1" stop-color="#2195EA"/>
</linearGradient>
<linearGradient id="paint7_linear" x1="342.258" y1="68.0629" x2="324.758" y2="108.896" gradientUnits="userSpaceOnUse">
<stop stop-color="#37AEE2"/>
<stop offset="1" stop-color="#1E96C8"/>
</linearGradient>
<linearGradient id="paint8_linear" x1="334.622" y1="93.0952" x2="341.913" y2="104.762" gradientUnits="userSpaceOnUse">
<stop stop-color="#EFF7FC"/>
<stop offset="1" stop-color="white"/>
</linearGradient>
</defs>
</svg>
