<svg width="52" height="57" viewBox="0 0 52 57" fill="none" xmlns="http://www.w3.org/2000/svg">
<path d="M35.1197 54.72H23.7197V36.48H35.1197V54.72Z" fill="#FF5F00"/>
<path d="M23.9743 45.6C23.9743 41.9638 25.658 38.7248 28.28 36.6374C26.3626 35.111 23.9428 34.2 21.3129 34.2C15.0869 34.2 10.04 39.3039 10.04 45.6C10.04 51.8961 15.0869 57 21.3129 57C23.9428 57 26.3626 56.089 28.28 54.5626C25.658 52.4752 23.9743 49.2362 23.9743 45.6Z" fill="#EB001B"/>
<path d="M46.5203 45.6C46.5203 51.8961 41.4736 57 35.2479 57C32.6181 57 30.1983 56.089 28.2803 54.5626C30.9029 52.4752 32.5865 49.2362 32.5865 45.6C32.5865 41.9638 30.9029 38.7248 28.2803 36.6374C30.1983 35.111 32.6181 34.2 35.2479 34.2C41.4736 34.2 46.5203 39.3039 46.5203 45.6Z" fill="#F79E1B"/>
<path fill-rule="evenodd" clip-rule="evenodd" d="M32.9806 3.27386C31.7395 3.47848 31.2224 4.09231 31.2224 4.60385C31.1799 5.36102 32.1339 5.85877 33.2722 6.45264C34.9025 7.30314 36.9106 8.35081 36.9106 10.64C36.9106 13.9139 34.1182 15.96 29.8779 15.96C28.0163 15.96 26.2581 15.5508 25.3273 15.1416L26.0512 11.7654C26.982 12.2769 28.1197 12.7885 30.1881 12.7885C31.4292 12.7885 32.6703 12.2769 32.6703 11.2539C32.6703 10.5377 32.1532 10.0261 30.6019 9.30999C29.1539 8.59384 27.0855 7.36617 27.0855 5.11539C27.0855 2.14846 29.8779 0 33.9114 0C35.4627 0 36.8072 0.409244 37.738 0.716167L37.0141 3.99003C35.1525 3.17157 33.6011 3.17156 32.9806 3.27386ZM11.5724 10.8448L15.8128 0.307098V0.204816H20.0531L13.434 15.7556H9.09034L5.8842 3.37633C5.67735 2.66018 5.57397 2.35327 4.95343 2.04634C3.9192 1.53481 2.36784 1.02328 0.919922 0.716355L1.02332 0.307098H7.95265C8.78003 0.307098 9.6074 0.818638 9.81425 1.84172L11.5724 10.8448ZM18.3988 15.8575L21.8117 0.306724H25.8451L22.5357 15.8575H18.3988ZM47.9772 0.306724H44.4608C43.6335 0.306724 43.013 0.715993 42.7027 1.43215L36.6007 15.8575H40.8411L41.6685 13.5045H46.8396L47.3567 15.8575H51.0799L47.9772 0.306724ZM43.013 10.3329L45.1848 4.50138L46.4259 10.3329H43.013Z" fill="#00579F"/>
</svg>
